<svg width="1200" height="630" viewBox="0 0 1200 630" fill="none" xmlns="http://www.w3.org/2000/svg" role="img" aria-labelledby="title desc">
  <title id="title">APIs flowing into a SQL query surface</title>
  <desc id="desc">A dark Pawrly-themed diagram showing REST APIs, GraphQL, and OpenAPI specs feeding into a SQL query layer that produces reusable tables.</desc>
  <defs>
    <linearGradient id="bg" x1="0" y1="0" x2="1200" y2="630" gradientUnits="userSpaceOnUse">
      <stop stop-color="#061421"/>
      <stop offset="0.52" stop-color="#082437"/>
      <stop offset="1" stop-color="#0C3645"/>
    </linearGradient>
    <linearGradient id="gold" x1="379" y1="166" x2="819" y2="516" gradientUnits="userSpaceOnUse">
      <stop stop-color="#BAE6FD"/>
      <stop offset="1" stop-color="#38BDF8"/>
    </linearGradient>
    <linearGradient id="foam" x1="225" y1="126" x2="971" y2="528" gradientUnits="userSpaceOnUse">
      <stop stop-color="#CCFBF1" stop-opacity="0.95"/>
      <stop offset="1" stop-color="#2DD4BF" stop-opacity="0.72"/>
    </linearGradient>
    <filter id="softShadow" x="-20%" y="-20%" width="140%" height="140%" color-interpolation-filters="sRGB">
      <feDropShadow dx="0" dy="24" stdDeviation="28" flood-color="#000000" flood-opacity="0.35"/>
    </filter>
    <filter id="glow" x="-30%" y="-30%" width="160%" height="160%" color-interpolation-filters="sRGB">
      <feGaussianBlur stdDeviation="22" result="blur"/>
      <feColorMatrix in="blur" type="matrix" values="0 0 0 0 0.18 0 0 0 0 0.72 0 0 0 0 0.92 0 0 0 0.38 0"/>
      <feBlend in2="SourceGraphic" mode="screen"/>
    </filter>
    <pattern id="grid" width="48" height="48" patternUnits="userSpaceOnUse">
      <path d="M 48 0 L 0 0 0 48" stroke="#FFFFFF" stroke-opacity="0.05" stroke-width="1"/>
    </pattern>
  </defs>

  <rect width="1200" height="630" fill="url(#bg)"/>
  <rect width="1200" height="630" fill="url(#grid)"/>
  <circle cx="1045" cy="90" r="260" fill="#38BDF8" opacity="0.1"/>
  <circle cx="160" cy="570" r="230" fill="#2DD4BF" opacity="0.1"/>

  <g transform="translate(32 28)">
    <g transform="scale(0.32)">
      <ellipse cx="30" cy="58" rx="9" ry="12" fill="#E8FBFF" transform="rotate(-20 30 58)"/>
      <ellipse cx="48" cy="40" rx="9.5" ry="13" fill="#E8FBFF" transform="rotate(-8 48 40)"/>
      <ellipse cx="72" cy="40" rx="9.5" ry="13" fill="#E8FBFF" transform="rotate(8 72 40)"/>
      <ellipse cx="90" cy="58" rx="9" ry="12" fill="#E8FBFF" transform="rotate(20 90 58)"/>
      <path d="M60 60 C78 60 92 72 92 88 C92 104 78 112 60 112 C42 112 28 104 28 88 C28 72 42 60 60 60 Z" fill="#E8FBFF"/>
      <g fill="none" stroke="#061421" stroke-width="4.5" stroke-linecap="round" stroke-linejoin="round">
        <path d="M52 80 L60 88 L52 96"/>
        <path d="M64 96 L72 96"/>
      </g>
    </g>
  </g>

  <path d="M223 188 C331 188 359 338 467 338" stroke="url(#foam)" stroke-width="3" stroke-linecap="round" opacity="0.85"/>
  <path d="M223 338 C333 338 354 338 467 338" stroke="url(#foam)" stroke-width="3" stroke-linecap="round" opacity="0.85"/>
  <path d="M223 488 C331 488 359 338 467 338" stroke="url(#foam)" stroke-width="3" stroke-linecap="round" opacity="0.85"/>
  <path d="M733 338 C837 338 859 228 966 228" stroke="url(#gold)" stroke-width="3" stroke-linecap="round" opacity="0.9"/>
  <path d="M733 338 C840 338 859 448 966 448" stroke="url(#gold)" stroke-width="3" stroke-linecap="round" opacity="0.9"/>

  <g filter="url(#softShadow)">
    <rect x="88" y="126" width="178" height="124" rx="28" fill="#071D2C" stroke="#7DD3FC" stroke-opacity="0.22"/>
    <rect x="88" y="276" width="178" height="124" rx="28" fill="#071D2C" stroke="#7DD3FC" stroke-opacity="0.22"/>
    <rect x="88" y="426" width="178" height="124" rx="28" fill="#071D2C" stroke="#7DD3FC" stroke-opacity="0.22"/>
  </g>

  <text x="177" y="170" text-anchor="middle" fill="#E8FBFF" font-family="ui-monospace, SFMono-Regular, Menlo, Consolas, monospace" font-size="18" font-weight="700">REST API</text>
  <text x="177" y="202" text-anchor="middle" fill="#9BB8C7" font-family="ui-sans-serif, system-ui, sans-serif" font-size="15">GitHub / Stripe</text>
  <text x="177" y="320" text-anchor="middle" fill="#E8FBFF" font-family="ui-monospace, SFMono-Regular, Menlo, Consolas, monospace" font-size="18" font-weight="700">GraphQL</text>
  <text x="177" y="352" text-anchor="middle" fill="#9BB8C7" font-family="ui-sans-serif, system-ui, sans-serif" font-size="15">Queries / Schemas</text>
  <text x="177" y="470" text-anchor="middle" fill="#E8FBFF" font-family="ui-monospace, SFMono-Regular, Menlo, Consolas, monospace" font-size="18" font-weight="700">OpenAPI Spec</text>
  <text x="177" y="502" text-anchor="middle" fill="#9BB8C7" font-family="ui-sans-serif, system-ui, sans-serif" font-size="15">Spec to tables</text>

  <g filter="url(#glow)">
    <rect x="432" y="168" width="336" height="340" rx="34" fill="#061A28" stroke="url(#gold)" stroke-width="2"/>
  </g>
  <rect x="461" y="200" width="278" height="44" rx="16" fill="#38BDF8" fill-opacity="0.14" stroke="#7DD3FC" stroke-opacity="0.34"/>
  <text x="600" y="228" text-anchor="middle" fill="#E8FBFF" font-family="ui-monospace, SFMono-Regular, Menlo, Consolas, monospace" font-size="19" font-weight="700">SELECT * FROM api.table</text>

  <text x="486" y="286" fill="#5EEAD4" font-family="ui-monospace, SFMono-Regular, Menlo, Consolas, monospace" font-size="18">SELECT</text>
  <text x="486" y="322" fill="#E8FBFF" font-family="ui-monospace, SFMono-Regular, Menlo, Consolas, monospace" font-size="18">  customer, status</text>
  <text x="486" y="358" fill="#5EEAD4" font-family="ui-monospace, SFMono-Regular, Menlo, Consolas, monospace" font-size="18">FROM</text>
  <text x="486" y="394" fill="#E8FBFF" font-family="ui-monospace, SFMono-Regular, Menlo, Consolas, monospace" font-size="18">  github.issues</text>
  <text x="486" y="430" fill="#5EEAD4" font-family="ui-monospace, SFMono-Regular, Menlo, Consolas, monospace" font-size="18">JOIN</text>
  <text x="486" y="466" fill="#E8FBFF" font-family="ui-monospace, SFMono-Regular, Menlo, Consolas, monospace" font-size="18">  accounts.customers</text>

  <g filter="url(#softShadow)">
    <rect x="925" y="160" width="196" height="136" rx="28" fill="#071D2C" stroke="#7DD3FC" stroke-opacity="0.28"/>
    <rect x="925" y="380" width="196" height="136" rx="28" fill="#071D2C" stroke="#7DD3FC" stroke-opacity="0.28"/>
  </g>
  <text x="1023" y="206" text-anchor="middle" fill="#E8FBFF" font-family="ui-monospace, SFMono-Regular, Menlo, Consolas, monospace" font-size="18" font-weight="700">ROWS</text>
  <rect x="959" y="230" width="128" height="10" rx="5" fill="#5EEAD4" opacity="0.72"/>
  <rect x="959" y="254" width="92" height="10" rx="5" fill="#38BDF8" opacity="0.72"/>
  <text x="1023" y="426" text-anchor="middle" fill="#E8FBFF" font-family="ui-monospace, SFMono-Regular, Menlo, Consolas, monospace" font-size="18" font-weight="700">AGENTS</text>
  <rect x="958" y="450" width="130" height="10" rx="5" fill="#5EEAD4" opacity="0.72"/>
  <rect x="958" y="474" width="104" height="10" rx="5" fill="#38BDF8" opacity="0.72"/>

  <text x="640" y="88" text-anchor="middle" fill="#E8FBFF" font-family="ui-sans-serif, system-ui, sans-serif" font-size="44" font-weight="800" letter-spacing="-1">Query Any API with SQL</text>
  <text x="600" y="588" text-anchor="middle" fill="#B8D3DE" font-family="ui-sans-serif, system-ui, sans-serif" font-size="20">Describe sources once. Query them everywhere.</text>
</svg>
